<?xml version="1.0" encoding="UTF-8"?>
<svg id="Layer_1" data-name="Layer 1" xmlns="http://www.w3.org/2000/svg" width="481.83" height="213.99" viewBox="0 0 481.83 213.99">
  <g>
    <g>
      <path d="M232.92,167.5h2.14v-14.51h-2.14v-3.3h7.94v3.3h-2.11v14.51h2.11v3.3h-7.94v-3.3Z" style="fill: #fff;"/>
      <path d="M244.3,159.51c0-.45-.24-.65-.66-.65h-1.19v-3.21h3.48c1.34,0,1.99.63,1.99,1.7v.45c0,.33-.03.65-.03.65h.06c.65-1.28,2.29-3.15,5.35-3.15,3.36,0,5.29,1.75,5.29,5.77v5.91c0,.42.24.65.65.65h1.16v3.18h-3.57c-1.43,0-2.02-.59-2.02-2.02v-6.96c0-1.84-.47-3.09-2.38-3.09-2.05,0-3.54,1.28-4.1,3.09-.18.62-.27,1.31-.27,2.02v6.96h-3.77v-11.29Z" style="fill: #fff;"/>
      <path d="M263.31,158.65h-1.96v-3h2.08v-4.13h3.66v4.13h3.45v3h-3.45v6.12c0,2.5,1.96,2.85,3.03,2.85.42,0,.68-.06.68-.06v3.3s-.47.09-1.19.09c-2.11,0-6.3-.62-6.3-5.71v-6.6Z" style="fill: #fff;"/>
      <path d="M279.92,155.29c4.34,0,6.72,3.18,6.72,7.19,0,.51-.06,1.1-.12,1.46h-10.46c.27,2.65,2.29,4.01,4.58,4.01,1.96,0,3.54-1.1,4.34-1.66l1.49,2.71c-1.1.92-3.45,2.17-6.09,2.17-5.02,0-8.17-3.63-8.17-7.94,0-4.67,3.18-7.94,7.73-7.94ZM282.87,161.35c-.03-2.02-1.34-3.21-3.03-3.21-1.93,0-3.3,1.28-3.66,3.21h6.69Z" style="fill: #fff;"/>
      <path d="M289.99,159.51c0-.45-.24-.65-.66-.65h-1.19v-3.21h3.48c1.34,0,1.99.57,1.99,1.84v.89c0,.57-.06.95-.06.95h.06c.71-2.17,2.53-3.89,4.81-3.89.36,0,.71.06.71.06v3.72s-.42-.06-.92-.06c-1.61,0-3.42.92-4.13,3.18-.24.74-.33,1.58-.33,2.47v6h-3.77v-11.29Z" style="fill: #fff;"/>
      <path d="M301.97,159.51c0-.45-.24-.65-.66-.65h-1.19v-3.21h3.48c1.34,0,1.99.63,1.99,1.7v.45c0,.33-.03.65-.03.65h.06c.65-1.28,2.29-3.15,5.35-3.15,3.36,0,5.29,1.75,5.29,5.77v5.91c0,.42.24.65.65.65h1.16v3.18h-3.57c-1.43,0-2.02-.59-2.02-2.02v-6.96c0-1.84-.47-3.09-2.38-3.09-2.05,0-3.54,1.28-4.1,3.09-.18.62-.27,1.31-.27,2.02v6.96h-3.77v-11.29Z" style="fill: #fff;"/>
      <path d="M328.29,161.29h.47v-.21c0-2.08-.86-2.88-2.79-2.88-.68,0-2.02.18-2.02,1.01v.8h-3.54v-1.6c0-2.79,4.01-3.12,5.47-3.12,5.17,0,6.66,2.59,6.66,6.03v5.65c0,.42.24.65.65.65h1.19v3.18h-3.42c-1.4,0-1.9-.77-1.9-1.66v-.65h-.06s-1.28,2.68-4.7,2.68c-2.7,0-5.02-1.7-5.02-4.52,0-5.08,6.54-5.35,9.01-5.35ZM325.32,168.28c2.08,0,3.48-2.14,3.48-3.98v-.42h-.68c-1.96,0-5.08.3-5.08,2.38,0,1.01.77,2.02,2.29,2.02Z" style="fill: #fff;"/>
      <path d="M337.17,158.65h-1.96v-3h2.08v-4.13h3.66v4.13h3.45v3h-3.45v6.12c0,2.5,1.96,2.85,3.03,2.85.42,0,.68-.06.68-.06v3.3s-.47.09-1.19.09c-2.11,0-6.3-.62-6.3-5.71v-6.6Z" style="fill: #fff;"/>
      <path d="M347.75,159.51c0-.45-.24-.65-.66-.65h-1.19v-3.21h3.6c1.4,0,1.99.63,1.99,2.02v9.3c0,.42.24.65.65.65h1.19v3.18h-3.6c-1.4,0-1.99-.59-1.99-2.02v-9.27ZM347.93,149.7h3.27v3.48h-3.27v-3.48Z" style="fill: #fff;"/>
      <path d="M363.08,155.29c4.64,0,8.32,3.3,8.32,7.94s-3.69,7.94-8.29,7.94-8.32-3.27-8.32-7.94,3.68-7.94,8.29-7.94ZM363.11,167.95c2.44,0,4.49-1.9,4.49-4.72s-2.05-4.73-4.49-4.73-4.52,1.93-4.52,4.73,2.05,4.72,4.52,4.72Z" style="fill: #fff;"/>
      <path d="M374.7,159.51c0-.45-.24-.65-.66-.65h-1.19v-3.21h3.48c1.34,0,1.99.63,1.99,1.7v.45c0,.33-.03.65-.03.65h.06c.65-1.28,2.29-3.15,5.35-3.15,3.36,0,5.29,1.75,5.29,5.77v5.91c0,.42.24.65.65.65h1.16v3.18h-3.57c-1.43,0-2.02-.59-2.02-2.02v-6.96c0-1.84-.47-3.09-2.38-3.09-2.05,0-3.54,1.28-4.1,3.09-.18.62-.27,1.31-.27,2.02v6.96h-3.77v-11.29Z" style="fill: #fff;"/>
      <path d="M401.02,161.29h.47v-.21c0-2.08-.86-2.88-2.79-2.88-.68,0-2.02.18-2.02,1.01v.8h-3.54v-1.6c0-2.79,4.01-3.12,5.47-3.12,5.17,0,6.66,2.59,6.66,6.03v5.65c0,.42.24.65.65.65h1.19v3.18h-3.42c-1.4,0-1.9-.77-1.9-1.66v-.65h-.06s-1.28,2.68-4.7,2.68c-2.7,0-5.02-1.7-5.02-4.52,0-5.08,6.54-5.35,9.01-5.35ZM398.05,168.28c2.08,0,3.48-2.14,3.48-3.98v-.42h-.68c-1.96,0-5.08.3-5.08,2.38,0,1.01.77,2.02,2.29,2.02Z" style="fill: #fff;"/>
      <path d="M409.28,153.56c0-.45-.24-.65-.65-.65h-1.19v-3.21h3.6c1.4,0,1.99.62,1.99,2.02v15.25c0,.42.24.65.65.65h1.19v3.18h-3.6c-1.4,0-1.99-.59-1.99-2.02v-15.22Z" style="fill: #fff;"/>
      <path d="M234.49,189.94h-1.93v-3.3h9.66c3.95,0,6.72,2.76,6.72,6.87s-2.77,6.96-6.72,6.96h-3.84v7.28h-3.89v-17.8ZM241.51,197.13c2.2,0,3.45-1.43,3.45-3.63s-1.25-3.57-3.39-3.57h-3.18v7.19h3.12Z" style="fill: #fff;"/>
      <path d="M258.21,192.23c4.64,0,8.32,3.3,8.32,7.94s-3.69,7.94-8.29,7.94-8.32-3.27-8.32-7.94,3.68-7.94,8.29-7.94ZM258.24,204.89c2.44,0,4.49-1.9,4.49-4.72s-2.05-4.73-4.49-4.73-4.52,1.93-4.52,4.73,2.05,4.72,4.52,4.72Z" style="fill: #fff;"/>
      <path d="M269.2,190.51c0-.45-.24-.65-.65-.65h-1.19v-3.21h3.6c1.4,0,1.99.33,1.99,1.72v9.57h1.13c.51,0,1.1-.09,1.43-.56l3.09-4.78h4.22l-3.86,5.71c-.62.95-1.13,1.19-1.13,1.19v.06s.56.21,1.07,1.19l1.75,3.27c.24.45.53.56,1.22.56h1.04v3.18h-2.79c-1.28,0-1.81-.21-2.38-1.31l-2.56-4.76c-.27-.53-.92-.56-1.37-.56h-.86v6.63h-3.75v-17.24Z" style="fill: #fff;"/>
      <path d="M291.57,192.23c4.34,0,6.72,3.18,6.72,7.19,0,.5-.06,1.1-.12,1.46h-10.46c.27,2.65,2.29,4.01,4.58,4.01,1.96,0,3.54-1.1,4.34-1.66l1.49,2.71c-1.1.92-3.45,2.17-6.09,2.17-5.02,0-8.17-3.63-8.17-7.94,0-4.67,3.18-7.94,7.73-7.94ZM294.51,198.29c-.03-2.02-1.34-3.21-3.03-3.21-1.93,0-3.3,1.28-3.66,3.21h6.69Z" style="fill: #fff;"/>
      <path d="M301.64,196.45c0-.44-.24-.65-.66-.65h-1.19v-3.21h3.48c1.34,0,1.99.56,1.99,1.84v.89c0,.56-.06.95-.06.95h.06c.71-2.17,2.53-3.89,4.81-3.89.36,0,.71.06.71.06v3.72s-.42-.06-.92-.06c-1.61,0-3.42.92-4.13,3.18-.24.74-.33,1.58-.33,2.47v6.01h-3.77v-11.3Z" style="fill: #fff;"/>
      <path d="M322.05,202.1s2.14,2.5,5.11,2.5c1.6,0,3-.86,3-2.5,0-3.6-9.93-3.27-9.93-9.87,0-3.42,3-5.94,7.04-5.94,2.47,0,6.3,1.16,6.3,4.16v1.96h-3.54v-.95c0-.98-1.37-1.64-2.79-1.64-1.78,0-3.09.92-3.09,2.26,0,3.57,9.96,2.85,9.96,9.81,0,3.36-2.62,6.21-7.01,6.21-4.7,0-7.28-3.27-7.28-3.27l2.23-2.73Z" style="fill: #fff;"/>
      <path d="M337.53,195.59h-1.96v-3h2.08v-4.13h3.66v4.13h3.45v3h-3.45v6.12c0,2.5,1.96,2.85,3.03,2.85.42,0,.68-.06.68-.06v3.3s-.47.09-1.19.09c-2.11,0-6.3-.62-6.3-5.71v-6.6Z" style="fill: #fff;"/>
      <path d="M349.27,210.81c1.04,0,1.96-.63,2.49-1.93l.51-1.16-5.02-11.38c-.21-.45-.42-.54-.83-.54h-.45v-3.21h2.5c1.07,0,1.61.39,2.02,1.43l2.94,7.58c.3.77.54,2.02.54,2.02h.06s.24-1.25.51-2.02l2.59-7.58c.33-1.04.98-1.43,2.02-1.43h2.56v3.21h-.44c-.42,0-.68.09-.86.54l-5.41,13.7c-1.1,2.73-3.24,3.95-5.47,3.95-2.41,0-3.84-1.54-3.84-1.54l1.43-2.68s.92,1.04,2.17,1.04Z" style="fill: #fff;"/>
      <path d="M363.94,190.51c0-.45-.24-.65-.65-.65h-1.19v-3.21h3.6c1.4,0,1.99.62,1.99,2.02v15.25c0,.42.24.65.65.65h1.19v3.18h-3.6c-1.4,0-1.99-.59-1.99-2.02v-15.22Z" style="fill: #fff;"/>
      <path d="M378.74,192.23c4.34,0,6.72,3.18,6.72,7.19,0,.5-.06,1.1-.12,1.46h-10.46c.27,2.65,2.29,4.01,4.58,4.01,1.96,0,3.54-1.1,4.34-1.66l1.49,2.71c-1.1.92-3.45,2.17-6.09,2.17-5.02,0-8.17-3.63-8.17-7.94,0-4.67,3.18-7.94,7.73-7.94ZM381.68,198.29c-.03-2.02-1.34-3.21-3.03-3.21-1.93,0-3.3,1.28-3.66,3.21h6.69Z" style="fill: #fff;"/>
    </g>
    <g>
      <path d="M234.13,107.04h12.61V21.55h-12.61V2.1h46.77v19.45h-12.44v85.49h12.44v19.45h-46.77v-19.45Z" style="fill: #fff;"/>
      <path d="M304.72,21.55h-11.39V2.1h56.93c23.3,0,39.59,16.29,39.59,40.47s-16.29,40.99-39.59,40.99h-22.6v42.92h-22.95V21.55ZM346.07,63.94c12.96,0,20.32-8.41,20.32-21.37s-7.36-21.02-19.97-21.02h-18.74v42.39h18.39Z" style="fill: #fff;"/>
      <path d="M410.71,93.2s12.61,14.71,30.13,14.71c9.46,0,17.69-5.08,17.69-14.71,0-21.2-58.51-19.27-58.51-58.16,0-20.15,17.69-35.04,41.52-35.04,14.54,0,37.14,6.83,37.14,24.52v11.56h-20.85v-5.6c0-5.78-8.06-9.64-16.47-9.64-10.51,0-18.22,5.43-18.22,13.31,0,21.02,58.69,16.82,58.69,57.81,0,19.79-15.42,36.61-41.34,36.61-27.68,0-42.92-19.27-42.92-19.27l13.14-16.12Z" style="fill: #fff;"/>
    </g>
  </g>
  <g>
    <path d="M.53,184.08v23.95s.03.07.07.07h23.95c8.88,0,16.07-7.2,16.07-16.07v-23.95s-.03-.07-.07-.07h-23.95c-8.88,0-16.07,7.2-16.07,16.07Z" style="fill: #ed2447; stroke: #b36270; stroke-miterlimit: 10;"/>
    <path d="M206.77,208.03v-56.5c0-10.68-8.66-19.34-19.34-19.34h-52.91s-.04,0-.05-.02l-7.14-7.14c-11.01-11.01-10.55-28.54.45-39.53l24.58-24.58s.12-.01.12.05v46.37s.03.07.07.07h30.22c13.27,0,24.03-10.76,24.03-24.03V2.39s-.03-.07-.07-.07h-81.01c-13.27,0-24.03,10.76-24.03,24.03v30.24s.03.07.07.07h45.98c.06,0,.09.07.05.12l-24.77,24.77c-10.66,10.66-27.94,10.66-38.6,0l-1.41-1.41s-.02-.03-.02-.05l.03-57.24c0-11.46-9.32-20.74-20.77-20.74h-27.5s-.07.03-.07.07v33.74s-.03.07-.07.07H.85s-.07.03-.07.07v26.88c0,11.49,9.32,20.81,20.81,20.81h57.2s.04,0,.05.02l1.42,1.42c11.01,11.01,10.55,28.52-.45,39.53l-24.87,24.87s-.12.01-.12-.05v-47.45s-.03-.07-.07-.07H17.57c-9.43,0-17.07,7.64-17.07,17.07v37.2s.03.07.07.07h51.64s.07.03.07.07v51.59s.03.07.07.07h37.17c9.43,0,17.07-7.64,17.07-17.07v-37.17s-.03-.07-.07-.07h-46.85c-.06,0-.09-.07-.05-.12l24.52-24.52c11.02-11.02,29.06-11.02,40.08,0l6.62,6.62s.02.03.02.05v52.96c0,10.68,8.66,19.34,19.34,19.34h56.5s.07-.03.07-.07Z" style="fill: #ed2447; stroke: #b36270; stroke-miterlimit: 10;"/>
  </g>
</svg>